<svg class="marks" width="1058" height="353" viewBox="0 0 1058 353" version="1.1" xmlns="http://www.w3.org/2000/svg" xmlns:xlink="http://www.w3.org/1999/xlink"><g transform="translate(53,12)"><g class="mark-group role-frame root"><g transform="translate(0,0)"><path class="background" d="M0,0h0v300h0Z" style="fill: none;"></path><g><g class="mark-group role-scope concat_0_group"><g transform="translate(0,0)"><path class="background" d="M0.5,0.5h400v300h-400Z" style="fill: none; stroke: #ddd;"></path><g><g class="mark-group role-axis"><g transform="translate(0.5,300.5)"><path class="background" d="M0,0h0v0h0Z" style="pointer-events: none; fill: none;"></path><g><g class="mark-rule role-axis-grid" style="pointer-events: none;"><line transform="translate(0,-300)" x2="0" y2="300" style="fill: none; stroke: #ddd; stroke-width: 1; opacity: 1;"></line><line transform="translate(40,-300)" x2="0" y2="300" style="fill: none; stroke: #ddd; stroke-width: 1; opacity: 1;"></line><line transform="translate(80,-300)" x2="0" y2="300" style="fill: none; stroke: #ddd; stroke-width: 1; opacity: 1;"></line><line transform="translate(120,-300)" x2="0" y2="300" style="fill: none; stroke: #ddd; stroke-width: 1; opacity: 1;"></line><line transform="translate(160,-300)" x2="0" y2="300" style="fill: none; stroke: #ddd; stroke-width: 1; opacity: 1;"></line><line transform="translate(200,-300)" x2="0" y2="300" style="fill: none; stroke: #ddd; stroke-width: 1; opacity: 1;"></line><line transform="translate(240,-300)" x2="0" y2="300" style="fill: none; stroke: #ddd; stroke-width: 1; opacity: 1;"></line><line transform="translate(280,-300)" x2="0" y2="300" style="fill: none; stroke: #ddd; stroke-width: 1; opacity: 1;"></line><line transform="translate(320,-300)" x2="0" y2="300" style="fill: none; stroke: #ddd; stroke-width: 1; opacity: 1;"></line><line transform="translate(360,-300)" x2="0" y2="300" style="fill: none; stroke: #ddd; stroke-width: 1; opacity: 1;"></line><line transform="translate(400,-300)" x2="0" y2="300" style="fill: none; stroke: #ddd; stroke-width: 1; opacity: 1;"></line></g></g></g></g><g class="mark-group role-axis"><g transform="translate(0.5,0.5)"><path class="background" d="M0,0h0v0h0Z" style="pointer-events: none; fill: none;"></path><g><g class="mark-rule role-axis-grid" style="pointer-events: none;"><line transform="translate(0,300)" x2="400" y2="0" style="fill: none; stroke: #ddd; stroke-width: 1; opacity: 1;"></line><line transform="translate(0,263)" x2="400" y2="0" style="fill: none; stroke: #ddd; stroke-width: 1; opacity: 1;"></line><line transform="translate(0,225)" x2="400" y2="0" style="fill: none; stroke: #ddd; stroke-width: 1; opacity: 1;"></line><line transform="translate(0,188)" x2="400" y2="0" style="fill: none; stroke: #ddd; stroke-width: 1; opacity: 1;"></line><line transform="translate(0,150)" x2="400" y2="0" style="fill: none; stroke: #ddd; stroke-width: 1; opacity: 1;"></line><line transform="translate(0,113)" x2="400" y2="0" style="fill: none; stroke: #ddd; stroke-width: 1; opacity: 1;"></line><line transform="translate(0,75)" x2="400" y2="0" style="fill: none; stroke: #ddd; stroke-width: 1; opacity: 1;"></line><line transform="translate(0,38)" x2="400" y2="0" style="fill: none; stroke: #ddd; stroke-width: 1; opacity: 1;"></line><line transform="translate(0,0)" x2="400" y2="0" style="fill: none; stroke: #ddd; stroke-width: 1; opacity: 1;"></line></g></g></g></g><g class="mark-group role-scope concat_0_pathgroup"><g transform="translate(0,0)"><path class="background" d="M0,0h400v300h-400Z" style="fill: none;"></path><g><g class="mark-line role-mark concat_0_marks"><path d="M400,274.15625L396,273.875L392,273.15625L388,273.03125L384,272.46875L380,272.78125L376,272L372,271.75L368,272.65625L364,273L360,273.28125L356,272.375L352,273.4375L348,271.53125L344,273.96875L340,271.40625L336,272.25L332,273.53125L328,272.875L324,273.53125L320,274.25L316,272.375L312,272.53125L308,271.84375L304,271.96875L300,273.03125L296,273.09375L292,273L288,273.53125L284,273.3125L280,273.46875L276,272.90625L272,273.625L268,271.40625L264,273.21875L260,272.5L256,273.6875L252,272.125L248,273.34375L244,273.53125L240,272.40625L236,272.375L231.99999999999997,273.875L227.99999999999997,274.53125L224.00000000000003,271.28125L220.00000000000003,273.96875L216,272.34375L212,274.5L208,271.9375L204,272.53125L200,273.03125L196,272.15625L192,273.1875L188,273.6875L184,274.03125L180,271.25L176,272.59375L172,273.84375L168,272.84375L164,274.3125L160,272.25L156,271.96875L152,273.65625L148,273.3125L144,273.90625L140,272.71875L136,273.65625L132,272L128,271.9375L124,272.96875L120,272.5L115.99999999999999,274.5L112.00000000000001,274.75L108,272.78125L104,272.65625L100,273.40625L96,273.625L92,274.1875L88,272.15625L84,273.0625L80,273.375L76,274L72,274.25L68,271.5625L64,272.3125L60,271.875L56.00000000000001,274.09375L52,273.9375L48,272.375L44,271.125L40,274.21875L36,273.65625L32,273.65625L28.000000000000004,273.5625L24,274.5625L20,273.03125L16,276.25L12,281.34375L8,291.65625L4,299.84375L0,300" style="fill: none; stroke: #4c78a8; stroke-width: 2;"></path></g></g></g><g transform="translate(0,0)"><path class="background" d="M0,0h400v300h-400Z" style="fill: none;"></path><g><g class="mark-line role-mark concat_0_marks"><path d="M400,294.3125L396,293.875L392,293.4375L388,293.5625L384,293.25L380,292.9375L376,293.0625L372,293.59375L368,294.34375L364,294.15625L360,293.3125L356,294.53125L352,293.46875L348,293.78125L344,293.03125L340,293.78125L336,293.84375L332,293.71875L328,294.3125L324,293.84375L320,294.6875L316,293.6875L312,293L308,293.875L304,294.03125L300,294L296,293.53125L292,293.46875L288,293.53125L284,293.84375L280,293.40625L276,293.71875L272,293.96875L268,293.28125L264,293.3125L260,294L256,294.03125L252,293.53125L248,293.71875L244,293.90625L240,293.875L236,294.28125L231.99999999999997,293.71875L227.99999999999997,294.03125L224.00000000000003,294.625L220.00000000000003,293.46875L216,293.65625L212,293.78125L208,292.625L204,294.15625L200,293.71875L196,294.4375L192,293.75L188,294.21875L184,294L180,293.375L176,294.25L172,293.21875L168,294L164,293.65625L160,293.65625L156,292.78125L152,294.0625L148,293.3125L144,294.03125L140,294.34375L136,293.21875L132,293.90625L128,293.625L124,294.6875L120,293.375L115.99999999999999,293.96875L112.00000000000001,293.28125L108,293.46875L104,294.40625L100,294L96,293.46875L92,294.09375L88,294.1875L84,293.59375L80,293.59375L76,294.1875L72,294.8125L68,294.84375L64,294.0625L60,294.59375L56.00000000000001,293.78125L52,294.84375L48,295.59375L44,295.5L40,296.1875L36,296.375L32,297.5625L28.000000000000004,298.03125L24,298.0625L20,299.1875L16,299.59375L12,299.96875L8,300L4,300L0,300" style="fill: none; stroke: #f58518; stroke-width: 2;"></path></g></g></g><g transform="translate(0,0)"><path class="background" d="M0,0h400v300h-400Z" style="fill: none;"></path><g><g class="mark-line role-mark concat_0_marks"><path d="M400,277.34375L396,278.3125L392,275.375L388,278.0625L384,274.53125L380,277.46875L376,277.5625L372,277.53125L368,278.375L364,277.6875L360,278.15625L356,276.75L352,277.59375L348,277.9375L344,277.8125L340,280.34375L336,276.25L332,276.8125L328,276.0625L324,276.4375L320,274.84375L316,274.65625L312,280.15625L308,278.25L304,280.28125L300,275.875L296,275.25L292,275.3125L288,279.09375L284,275.0625L280,275.5L276,277.625L272,277.65625L268,279.0625L264,282.5625L260,276.34375L256,274.0625L252,278.4375L248,279.84375L244,281.4375L240,274.9375L236,277.71875L231.99999999999997,271.125L227.99999999999997,274.46875L224.00000000000003,280.59375L220.00000000000003,281.6875L216,278.96875L212,279.09375L208,273.9375L204,272.8125L200,272L196,277.90625L192,276.40625L188,275.46875L184,277.9375L180,271.4375L176,278.28125L172,279.84375L168,274.53125L164,274.34375L160,273.59375L156,277.28125L152,278.625L148,283.1875L144,280.4375L140,278.1875L136,275.5L132,273.0625L128,276.25L124,278.125L120,275.125L115.99999999999999,274.875L112.00000000000001,278.84375L108,278.375L104,279.1875L100,272.28125L96,275.125L92,273.46875L88,272.4375L84,276.65625L80,285.21875L76,281.34375L72,273.6875L68,272.71875L64,275.03125L60,275.40625L56.00000000000001,277.5L52,275.625L48,281.53125L44,280.96875L40,279.40625L36,272L32,263.84375L28.000000000000004,269.0625L24,283.59375L20,295.03125L16,298.0625L12,299.25L8,299.8125L4,300L0,300" style="fill: none; stroke: #e45756; stroke-width: 2;"></path></g></g></g><g transform="translate(0,0)"><path class="background" d="M0,0h400v300h-400Z" style="fill: none;"></path><g><g class="mark-line role-mark concat_0_marks"><path d="M400,227.28125L396,224.78125L392,224.31249999999997L388,226.03125L384,225.74999999999994L380,226.31250000000003L376,219.09375000000003L372,219.84375L368,220.46875L364,215.71875000000003L360,217.68750000000006L356,216.125L352,215.37499999999994L348,227.875L344,214.49999999999997L340,224.65625L336,223.81250000000003L332,227.1875L328,219.28125000000003L324,227.3125L320,223.62500000000003L316,225.28124999999997L312,229.1875L308,226.53125L304,222.28125L300,219.28125L296,216.96875L292,225.625L288,229.9375L284,234.625L280,221.65625000000006L276,225.40625L272,222.34375L268,217.96875L264,216.78125L260,219.34375L256,220.56249999999997L252,216.625L248,212.46875000000006L244,215.8125L240,217.875L236,212.09375L231.99999999999997,216.65624999999997L227.99999999999997,212.90624999999997L224.00000000000003,224.28125L220.00000000000003,217.62500000000006L216,222L212,211.21875000000003L208,214.125L204,216.21875L200,219.3125L196,217.65625L192,216.00000000000003L188,223.03125L184,220.15625000000006L180,227.06250000000003L176,216.53125000000003L172,213.99999999999994L168,217.59375L164,218.03125000000006L160,220.5L156,218.03125L152,224.78125000000003L148,218.0625L144,226.03125L140,217.65625L136,226.53125L132,222.40625L128,226.375L124,231.6875L120,228.0625L115.99999999999999,224.96874999999994L112.00000000000001,224.6875L108,228.59375L104,225.15625L100,232L96,224.59374999999997L92,229.375L88,233.40625L84,220.9375L80,231.5625L76,236.34375000000006L72,230.9375L68,233.8125L64,240.4375L60,239.59375L56.00000000000001,237.375L52,250.59375L48,253.25L44,254.75000000000003L40,259.0625L36,251.4375L32,248L28.000000000000004,250.25L24,263.34375L20,288.9375L16,298.625L12,299.65625L8,299.96875L4,300L0,300" style="fill: none; stroke: #72b7b2; stroke-width: 2;"></path></g></g></g><g transform="translate(0,0)"><path class="background" d="M0,0h400v300h-400Z" style="fill: none;"></path><g><g class="mark-line role-mark concat_0_marks"><path d="M400,157.46875000000003L396,164.34375L392,161.03125000000003L388,165.375L384,164.84375L380,165.8125L376,164.28125000000006L372,165.71874999999997L368,166.43749999999997L364,169.40625L360,165.9375L356,168.12500000000006L352,167.71875000000009L348,169.68750000000003L344,171.15624999999997L340,158.8125L336,168.24999999999997L332,167.21875L328,166.125L324,169.43750000000003L320,166.71875000000003L316,167.96875000000006L312,166.96875000000009L308,169.96875000000003L304,168.875L300,169.65624999999997L296,167.15625000000006L292,167.75000000000006L288,170.46874999999997L284,170.37500000000003L280,170.40625000000003L276,169.43749999999997L272,170.90625L268,168.59375L264,165.4375L260,168.03125L256,165.90625000000003L252,169.5625L248,167.37500000000003L244,161.4375L240,173.74999999999997L236,173.71875L231.99999999999997,175.28125L227.99999999999997,172.03124999999994L224.00000000000003,176.3125L220.00000000000003,172.875L216,181.125L212,174.21875000000003L208,175.28125L204,178.59375000000006L200,180.96875000000006L196,182.74999999999997L192,181.78125000000006L188,183.50000000000006L184,177.375L180,177.0625L176,176.84375000000003L172,179.96875000000006L168,185.03125L164,186.84375L160,180.15625L156,184.53125L152,190.50000000000006L148,194.6875L144,188.65624999999994L140,187.93749999999997L136,190.62499999999997L132,189.59375L128,186.71875L124,187.15624999999994L120,182.46875L115.99999999999999,190.96875000000006L112.00000000000001,190.28125000000003L108,193.21874999999997L104,190.375L100,188.09375L96,194.0625L92,200.96875L88,198.21875L84,196.90625000000006L80,201.93749999999994L76,204.46875000000003L72,206.09375L68,203.40625L64,208.40625L60,214.21875L56.00000000000001,220.625L52,217.28125000000003L48,219.5L44,224.78125L40,221.03125L36,226.875L32,209.31250000000003L28.000000000000004,215.5L24,234.03125L20,240.21875000000003L16,255.5L12,288.78125L8,299.375L4,300L0,300" style="fill: none; stroke: #54a24b; stroke-width: 2;"></path></g></g></g><g transform="translate(0,0)"><path class="background" d="M0,0h400v300h-400Z" style="fill: none;"></path><g><g class="mark-line role-mark concat_0_marks"><path d="M400,115.71874999999997L396,114.81249999999989L392,114.5L388,117.18749999999997L384,116.31249999999997L380,115.75L376,115.6875L372,114.53125000000003L368,115.59375000000009L364,116.18750000000009L360,116.06250000000006L356,117.4375L352,116.78125000000006L348,116.53125L344,115.62499999999994L340,116.37500000000009L336,116.96875000000006L332,118.28125000000006L328,119.875L324,115.96875L320,118.71875L316,118.06250000000003L312,118.96875L308,117.06249999999991L304,122.43750000000006L300,121.46875000000003L296,120.81250000000006L292,121.06250000000003L288,119.59374999999994L284,123.68750000000003L280,122.6875L276,123.12499999999994L272,119.15624999999994L268,122.03125L264,119.75000000000011L260,120.25000000000006L256,120.9375L252,120.96875L248,119.53124999999997L244,122.68750000000003L240,122.87499999999994L236,123.12500000000006L231.99999999999997,120.25000000000006L227.99999999999997,121.46874999999997L224.00000000000003,120.15624999999997L220.00000000000003,124.4375L216,121.8125L212,119.59374999999997L208,121.50000000000003L204,120.81249999999997L200,120.93750000000006L196,122.5L192,120.375L188,123.15625L184,122.40625000000003L180,120.50000000000003L176,122.5625L172,121.15625000000009L168,119.8125L164,125.74999999999997L160,129.59375L156,127.6875L152,123.96875000000003L148,125.25000000000011L144,126.40625L140,126.28125000000003L136,126.53125L132,127.78125000000006L128,128.875L124,122.46875L120,121.37499999999994L115.99999999999999,127.65624999999997L112.00000000000001,125.3125L108,123.31250000000003L104,124.71874999999994L100,127.06250000000009L96,125.93750000000003L92,124.43749999999997L88,121.90625L84,125.18750000000006L80,124.68749999999997L76,124.31250000000006L72,131.03125L68,125.74999999999997L64,128.81249999999997L60,130.8125L56.00000000000001,129.68750000000003L52,135.40625000000003L48,132.3125L44,133.84375000000003L40,138.12499999999997L36,139.59375000000003L32,143.34375000000006L28.000000000000004,151.21875L24,152.90625L20,166.34375L16,168.96875000000003L12,209.0625L8,268.75L4,299.875L0,300" style="fill: none; stroke: #eeca3b; stroke-width: 2;"></path></g></g></g><g transform="translate(0,0)"><path class="background" d="M0,0h400v300h-400Z" style="fill: none;"></path><g><g class="mark-line role-mark concat_0_marks"><path d="M400,85.81250000000009L396,85.50000000000009L392,86.62499999999994L388,87.96874999999994L384,84.75L380,85.3125L376,86.18749999999997L372,88.40625000000003L368,87.4375L364,87.93749999999991L360,85.50000000000006L356,83.37499999999997L352,90.46875000000006L348,88.0625L344,84.78125000000003L340,92.09374999999997L336,87.78125000000006L332,84.99999999999997L328,85.5625L324,86.875L320,89.625L316,83.21875000000011L312,89.9375L308,84.40624999999997L304,88.75000000000003L300,86.9375L296,89.53125000000003L292,86.09374999999997L288,90.43749999999997L284,86.37499999999997L280,84.06249999999997L276,88.62500000000006L272,86.31249999999997L268,89.31250000000009L264,86.00000000000003L260,86.65625L256,88.43750000000006L252,86.15625000000006L248,86.93749999999997L244,82.62499999999997L240,92.46874999999997L236,89.5L231.99999999999997,88.71875000000006L227.99999999999997,85.75000000000003L224.00000000000003,91.34374999999991L220.00000000000003,84.62499999999997L216,87.21875000000006L212,86.875L208,88.43749999999997L204,85.1875L200,87.06250000000003L196,85.75000000000006L192,87.31250000000003L188,85.28125L184,85.59375000000003L180,89.90625L176,83.43750000000009L172,86.71875000000006L168,87.24999999999994L164,87.12500000000006L160,90.34375L156,83.87499999999994L152,86.00000000000003L148,87.75000000000003L144,87.90625000000006L140,87.59374999999997L136,87.59374999999997L132,86.65625L128,90.03125000000003L124,88.96875000000006L120,84.09375000000014L115.99999999999999,87.71875L112.00000000000001,88.43750000000006L108,91.90624999999997L104,88.65624999999997L100,91.50000000000009L96,87.43750000000009L92,90.96874999999994L88,90.56249999999997L84,94.46875000000006L80,89.81250000000009L76,91.71875000000006L72,90.96874999999997L68,89.5625L64,91.28124999999994L60,91.53125000000003L56.00000000000001,89.71875000000003L52,91.28124999999997L48,90.50000000000003L44,91.40625L40,90.78125L36,89.25000000000006L32,92.31250000000003L28.000000000000004,89.71875000000003L24,94.375L20,98.15625000000003L16,95.28125000000003L12,104.93750000000006L8,139.75000000000006L4,293.84375L0,300" style="fill: none; stroke: #b279a2; stroke-width: 2;"></path></g></g></g><g transform="translate(0,0)"><path class="background" d="M0,0h400v300h-400Z" style="fill: none;"></path><g><g class="mark-line role-mark concat_0_marks"><path d="M400,60.62500000000006L396,61.03125000000006L392,60.968750000000085L388,58.937499999999886L384,61.437500000000114L380,61.21875000000006L376,58.12499999999997L372,64.43749999999997L368,57.50000000000003L364,59.53125L360,59.46875000000003L356,60.09375000000003L352,60.06250000000003L348,62.12500000000003L344,63.75000000000014L340,61.093750000000114L336,59.12499999999997L332,59.656250000000114L328,60.06249999999997L324,59.9375L320,62.09375L316,61.500000000000085L312,60.06250000000003L308,61.18749999999997L304,59.00000000000006L300,60.0625L296,61.68750000000003L292,59.500000000000085L288,60.21875L284,61.84375000000014L280,61.24999999999997L276,58.531250000000114L272,60.25000000000003L268,59.03125L264,60.43749999999994L260,59.56250000000003L256,60.50000000000003L252,58.3125L248,60.156249999999915L244,62.09375L240,57.56249999999994L236,61.093749999999915L231.99999999999997,56.375000000000085L227.99999999999997,61.624999999999915L224.00000000000003,58.468750000000085L220.00000000000003,60.21875000000003L216,57.90625000000003L212,62.062500000000114L208,59.187500000000085L204,60.74999999999997L200,59.31250000000006L196,60.75000000000003L192,63.4375L188,60.37500000000006L184,56.59374999999994L180,62.34375000000006L176,58.781250000000085L172,59.78125L168,59.9375L164,61.968749999999915L160,61.000000000000085L156,61.21875000000006L152,59.40625000000006L148,58.53125000000006L144,63.0625L140,62.46874999999997L136,59.62499999999997L132,66.93750000000003L128,58.40625L124,58.625000000000085L120,57.09374999999997L115.99999999999999,66.0625L112.00000000000001,57.96875000000003L108,59.40625000000006L104,60.562500000000085L100,59.68750000000003L96,60.71875000000006L92,60.28125000000006L88,61.656250000000085L84,60.93750000000006L80,58.50000000000006L76,61.12499999999997L72,61.75000000000003L68,61.625L64,58.031250000000114L60,57.90625L56.00000000000001,64.53125000000009L52,59.90625L48,58.71875000000006L44,63.5L40,58.50000000000006L36,61.49999999999986L32,58.78125000000003L28.000000000000004,63.81249999999994L24,62.65624999999997L20,60.34375L16,64.49999999999991L12,66.56250000000006L8,76.81249999999997L4,221.46875L0,300" style="fill: none; stroke: #ff9da6; stroke-width: 2;"></path></g></g></g><g transform="translate(0,0)"><path class="background" d="M0,0h400v300h-400Z" style="fill: none;"></path><g><g class="mark-line role-mark concat_0_marks"><path d="M400,40.68749999999994L396,36.78125L392,37.125L388,38.53125L384,39.375L380,35.937500000000114L376,40.81249999999994L372,38.65625000000006L368,36.125L364,37.75000000000006L360,36.59374999999994L356,38.84375L352,37.65625L348,40.1875L344,41.09374999999994L340,36.906250000000114L336,36.625L332,39.18749999999994L328,33.71875000000006L324,41.125000000000114L320,36.78125L316,39.3125L312,38.9375L308,37.46875L304,38.6875L300,40.437500000000114L296,34.18750000000006L292,40.03124999999994L288,39.375L284,35.125L280,38.34375000000006L276,36.312499999999886L272,37.34375L268,42.375L264,37.343750000000114L260,37.12499999999994L256,39.21875L252,40.437500000000114L248,37.249999999999886L244,40.34375L240,35.15625000000006L236,39.75000000000017L231.99999999999997,37.96875000000006L227.99999999999997,38.437499999999886L224.00000000000003,38.78125L220.00000000000003,38.65625L216,39.125L212,37.12500000000006L208,39.81249999999994L204,36.71875000000006L200,36.8125L196,38.56250000000006L192,38.50000000000006L188,39.87500000000006L184,37.40625000000006L180,37.43749999999994L176,41.75000000000006L172,40.0625L168,39.15625000000006L164,39.12500000000006L160,43.65625000000006L156,44.125L152,40.28124999999994L148,42.5L144,45.12500000000006L140,41.43749999999994L136,43.593750000000114L132,43.15625L128,40.218750000000114L124,41.6875L120,37.71875000000006L115.99999999999999,38.59375000000006L112.00000000000001,38.93749999999994L108,37.21875L104,38.21875000000006L100,36.46875L96,37.5L92,37.75L88,40.40625L84,37.187499999999886L80,40.40624999999994L76,38.12499999999994L72,38.375L68,38.65625L64,37.4375L60,42.59374999999994L56.00000000000001,33.12500000000006L52,40.093749999999886L48,39.84374999999994L44,38.81249999999994L40,36.09375000000017L36,37.71874999999994L32,39.90625L28.000000000000004,40.65624999999994L24,35.90625L20,37.4375L16,35.1875L12,51.125000000000085L8,75.90625L4,170.375L0,300" style="fill: none; stroke: #9d755d; stroke-width: 2;"></path></g></g></g><g transform="translate(0,0)"><path class="background" d="M0,0h400v300h-400Z" style="fill: none;"></path><g><g class="mark-line role-mark concat_0_marks"><path d="M400,25.093750000000057L396,27.062500000000057L392,24.187500000000114L388,24.375000000000057L384,25.343749999999886L380,19.6875L376,25.75L372,23.1875L368,25.968750000000057L364,23.093750000000057L360,22.5L356,27.281250000000057L352,23.000000000000057L348,23.78125L344,27.468750000000057L340,22.000000000000057L336,25.34375L332,26.71875000000017L328,24.968750000000057L324,27.6875L320,23.531250000000114L316,26.156250000000114L312,26.4375L308,25.687500000000057L304,24.968750000000057L300,23.375000000000057L296,26.09375L292,26.906250000000114L288,26.6875L284,27.249999999999943L280,21.90625L276,24.500000000000114L272,22.593749999999943L268,26.5625L264,27.031249999999943L260,24.65624999999983L256,25.187499999999943L252,25.375000000000057L248,26.281250000000114L244,25.250000000000057L240,19.875L236,28.3125L231.99999999999997,25.21875L227.99999999999997,27.499999999999943L224.00000000000003,21.781250000000057L220.00000000000003,27.4375L216,24.125L212,25.3125L208,24.65625L204,23.59375L200,25.125000000000057L196,19.65625L192,22.124999999999943L188,26.687500000000114L184,23.468750000000057L180,25.375L176,24.1875L172,25.281250000000114L168,24.343749999999886L164,26.499999999999943L160,26.375L156,25.375000000000057L152,22.46875L148,27.125000000000057L144,24.687500000000114L140,26.437500000000057L136,23.59375L132,26.218750000000057L128,22.65625L124,25.500000000000114L120,24.812499999999943L115.99999999999999,24.687499999999886L112.00000000000001,23.374999999999943L108,20.656249999999943L104,27.218749999999943L100,24.312500000000114L96,20.53125L92,24.875L88,28.78125L84,23.500000000000114L80,24.65625L76,26.156249999999943L72,24.312500000000114L68,24.093749999999943L64,26.249999999999943L60,23.5625L56.00000000000001,23.53125L52,21.999999999999886L48,25.281250000000114L44,25.343750000000057L40,31.343749999999943L36,31.218749999999886L32,29.031250000000114L28.000000000000004,28.656250000000057L24,28.125000000000057L20,51.40625000000003L16,57.56250000000003L12,44.6875L8,61.68750000000003L4,159.75000000000003L0,300" style="fill: none; stroke: #bab0ac; stroke-width: 2;"></path></g></g></g><g transform="translate(0,0)"><path class="background" d="M0,0h400v300h-400Z" style="fill: none;"></path><g><g class="mark-line role-mark concat_0_marks"><path d="M400,20.437500000000057L396,14.46875L392,19.0625L388,16.125L384,21.156250000000057L380,16.96875000000017L376,16.90625L372,21.281250000000114L368,16.3125L364,22.375L360,18.093749999999943L356,17.218750000000114L352,15.749999999999943L348,22.968749999999943L344,23.031250000000057L340,20.687499999999886L336,22.593749999999943L332,19.093750000000057L328,23.5625L324,22.656250000000057L320,20.124999999999943L316,24.843749999999943L312,21.499999999999943L308,18.343749999999943L304,17.3125L300,19.187500000000057L296,22.781249999999943L292,21.687500000000057L288,21.093749999999886L284,18.531250000000057L280,17.8125L276,16.843750000000057L272,19.843750000000114L268,15.03125L264,19.593749999999943L260,16.125000000000057L256,13.093750000000057L252,17.21875L248,18.749999999999943L244,17.906249999999943L240,17.0625L236,18.156250000000057L231.99999999999997,16.6875L227.99999999999997,17.937500000000114L224.00000000000003,16.78125L220.00000000000003,16.843750000000114L216,23.343750000000114L212,16.812500000000057L208,19.09375L204,15.78125L200,18.875000000000114L196,17.53125L192,20.15625L188,15.249999999999943L184,17.124999999999943L180,14.75L176,18.250000000000057L172,19.343749999999943L168,19.656250000000057L164,14.249999999999943L160,18.875000000000114L156,19.937500000000057L152,19.5L148,21.375L144,18.906249999999943L140,17.749999999999943L136,19.5L132,15.875L128,18.031249999999886L124,19.187500000000057L120,17.906249999999943L115.99999999999999,16.1875L112.00000000000001,16.4375L108,17.312500000000057L104,14.031250000000114L100,17.749999999999943L96,14.499999999999943L92,21.718749999999943L88,18.53125L84,18.781249999999943L80,12.875000000000057L76,20.187500000000057L72,20.468750000000057L68,14.40625L64,16.781249999999943L60,18.531249999999886L56.00000000000001,19.90625L52,16.687499999999886L48,14.093750000000057L44,27.53125L40,40.93750000000006L36,42.34374999999994L32,38.56250000000006L28.000000000000004,43.53125000000006L24,37.96875L20,47.906249999999915L16,52.21875L12,43.90625000000006L8,56.71875L4,151.34374999999997L0,300" style="fill: none; stroke: #4c78a8; stroke-width: 2;"></path></g></g></g><g transform="translate(0,0)"><path class="background" d="M0,0h400v300h-400Z" style="fill: none;"></path><g><g class="mark-line role-mark concat_0_marks"><path d="M400,11.65625000000017L396,13.937499999999943L392,9.96875L388,15.156250000000114L384,13.3125L380,10.96875L376,10.999999999999943L372,12.968750000000057L368,11.156249999999943L364,10.656250000000057L360,9.062500000000057L356,15.687499999999886L352,10.625000000000057L348,10.40625L344,13.15625L340,11.218749999999943L336,13.031250000000057L332,8.781250000000057L328,15.375000000000114L324,12.812500000000057L320,12.90625L316,13.093750000000057L312,14.8125L308,13.281249999999886L304,13.406249999999943L300,9.437500000000057L296,12.749999999999943L292,13.062499999999943L288,12.687500000000057L284,10.281250000000114L280,14.96875L276,15.156250000000057L272,10.09375L268,15.999999999999943L264,11.84374999999983L260,10.37500000000017L256,8.84375L252,14.656250000000057L248,16.5625L244,12.34375L240,10.874999999999943L236,18.125000000000057L231.99999999999997,15.68750000000017L227.99999999999997,10.78125L224.00000000000003,14.03125L220.00000000000003,14.937500000000057L216,17.093749999999886L212,11.125L208,16.21875L204,14.093750000000057L200,13.062499999999943L196,14.21875L192,14.218750000000057L188,13.906250000000057L184,14.34375L180,16.187499999999943L176,17.406250000000114L172,9.56250000000017L168,14.28125L164,14.75L160,12.624999999999943L156,11.875L152,11.96875L148,13.875L144,12.5L140,12.812500000000057L136,13.531249999999943L132,15.937499999999886L128,16.999999999999943L124,12.062500000000114L120,19.656250000000057L115.99999999999999,16.000000000000057L112.00000000000001,14.12500000000017L108,14.937500000000114L104,23.53125L100,24.375L96,21.093749999999943L92,19.15625L88,20.000000000000057L84,23.687500000000057L80,37.68749999999994L76,28.656249999999943L72,29.40625L68,34.62499999999994L64,30.218750000000114L60,29.437499999999886L56.00000000000001,35.81249999999994L52,36.24999999999994L48,32.81250000000006L44,30.34375L40,30.906250000000057L36,38.59375000000006L32,47.59375L28.000000000000004,36.84374999999994L24,42.28125L20,42.21875L16,36.43750000000006L12,33.24999999999994L8,47.93749999999994L4,146.59374999999997L0,300" style="fill: none; stroke: #f58518; stroke-width: 2;"></path></g></g></g></g><g class="mark-group role-axis"><g transform="translate(0.5,300.5)"><path class="background" d="M0,0h0v0h0Z" style="pointer-events: none; fill: none;"></path><g><g class="mark-rule role-axis-tick" style="pointer-events: none;"><line transform="translate(0,0)" x2="0" y2="5" style="fill: none; stroke: #888; stroke-width: 1; opacity: 1;"></line><line transform="translate(40,0)" x2="0" y2="5" style="fill: none; stroke: #888; stroke-width: 1; opacity: 1;"></line><line transform="translate(80,0)" x2="0" y2="5" style="fill: none; stroke: #888; stroke-width: 1; opacity: 1;"></line><line transform="translate(120,0)" x2="0" y2="5" style="fill: none; stroke: #888; stroke-width: 1; opacity: 1;"></line><line transform="translate(160,0)" x2="0" y2="5" style="fill: none; stroke: #888; stroke-width: 1; opacity: 1;"></line><line transform="translate(200,0)" x2="0" y2="5" style="fill: none; stroke: #888; stroke-width: 1; opacity: 1;"></line><line transform="translate(240,0)" x2="0" y2="5" style="fill: none; stroke: #888; stroke-width: 1; opacity: 1;"></line><line transform="translate(280,0)" x2="0" y2="5" style="fill: none; stroke: #888; stroke-width: 1; opacity: 1;"></line><line transform="translate(320,0)" x2="0" y2="5" style="fill: none; stroke: #888; stroke-width: 1; opacity: 1;"></line><line transform="translate(360,0)" x2="0" y2="5" style="fill: none; stroke: #888; stroke-width: 1; opacity: 1;"></line><line transform="translate(400,0)" x2="0" y2="5" style="fill: none; stroke: #888; stroke-width: 1; opacity: 1;"></line></g><g class="mark-text role-axis-label" style="pointer-events: none;"><text text-anchor="start" transform="translate(0,15)" style="font-family: sans-serif; font-size: 10px; fill: #000; opacity: 1;">0</text><text text-anchor="middle" transform="translate(40,15)" style="font-family: sans-serif; font-size: 10px; fill: #000; opacity: 0;">1,000</text><text text-anchor="middle" transform="translate(80,15)" style="font-family: sans-serif; font-size: 10px; fill: #000; opacity: 1;">2,000</text><text text-anchor="middle" transform="translate(120,15)" style="font-family: sans-serif; font-size: 10px; fill: #000; opacity: 0;">3,000</text><text text-anchor="middle" transform="translate(160,15)" style="font-family: sans-serif; font-size: 10px; fill: #000; opacity: 1;">4,000</text><text text-anchor="middle" transform="translate(200,15)" style="font-family: sans-serif; font-size: 10px; fill: #000; opacity: 0;">5,000</text><text text-anchor="middle" transform="translate(240,15)" style="font-family: sans-serif; font-size: 10px; fill: #000; opacity: 1;">6,000</text><text text-anchor="middle" transform="translate(280,15)" style="font-family: sans-serif; font-size: 10px; fill: #000; opacity: 0;">7,000</text><text text-anchor="middle" transform="translate(320,15)" style="font-family: sans-serif; font-size: 10px; fill: #000; opacity: 1;">8,000</text><text text-anchor="middle" transform="translate(360,15)" style="font-family: sans-serif; font-size: 10px; fill: #000; opacity: 0;">9,000</text><text text-anchor="end" transform="translate(400,15)" style="font-family: sans-serif; font-size: 10px; fill: #000; opacity: 1;">10,000</text></g><g class="mark-rule role-axis-domain" style="pointer-events: none;"><line transform="translate(0,0)" x2="400" y2="0" style="fill: none; stroke: #888; stroke-width: 1; opacity: 1;"></line></g><g class="mark-text role-axis-title" style="pointer-events: none;"><text text-anchor="middle" transform="translate(200,31)" style="font-family: sans-serif; font-size: 11px; font-weight: bold; fill: #000; opacity: 1;">time</text></g></g></g></g><g class="mark-group role-axis"><g transform="translate(0.5,0.5)"><path class="background" d="M0,0h0v0h0Z" style="pointer-events: none; fill: none;"></path><g><g class="mark-rule role-axis-tick" style="pointer-events: none;"><line transform="translate(0,300)" x2="-5" y2="0" style="fill: none; stroke: #888; stroke-width: 1; opacity: 1;"></line><line transform="translate(0,263)" x2="-5" y2="0" style="fill: none; stroke: #888; stroke-width: 1; opacity: 1;"></line><line transform="translate(0,225)" x2="-5" y2="0" style="fill: none; stroke: #888; stroke-width: 1; opacity: 1;"></line><line transform="translate(0,188)" x2="-5" y2="0" style="fill: none; stroke: #888; stroke-width: 1; opacity: 1;"></line><line transform="translate(0,150)" x2="-5" y2="0" style="fill: none; stroke: #888; stroke-width: 1; opacity: 1;"></line><line transform="translate(0,113)" x2="-5" y2="0" style="fill: none; stroke: #888; stroke-width: 1; opacity: 1;"></line><line transform="translate(0,75)" x2="-5" y2="0" style="fill: none; stroke: #888; stroke-width: 1; opacity: 1;"></line><line transform="translate(0,38)" x2="-5" y2="0" style="fill: none; stroke: #888; stroke-width: 1; opacity: 1;"></line><line transform="translate(0,0)" x2="-5" y2="0" style="fill: none; stroke: #888; stroke-width: 1; opacity: 1;"></line></g><g class="mark-text role-axis-label" style="pointer-events: none;"><text text-anchor="end" transform="translate(-7,303)" style="font-family: sans-serif; font-size: 10px; fill: #000; opacity: 1;">0.0</text><text text-anchor="end" transform="translate(-7,265.5)" style="font-family: sans-serif; font-size: 10px; fill: #000; opacity: 1;">0.2</text><text text-anchor="end" transform="translate(-7,228)" style="font-family: sans-serif; font-size: 10px; fill: #000; opacity: 1;">0.4</text><text text-anchor="end" transform="translate(-7,190.5)" style="font-family: sans-serif; font-size: 10px; fill: #000; opacity: 1;">0.6</text><text text-anchor="end" transform="translate(-7,153)" style="font-family: sans-serif; font-size: 10px; fill: #000; opacity: 1;">0.8</text><text text-anchor="end" transform="translate(-7,115.5)" style="font-family: sans-serif; font-size: 10px; fill: #000; opacity: 1;">1.0</text><text text-anchor="end" transform="translate(-7,78.00000000000003)" style="font-family: sans-serif; font-size: 10px; fill: #000; opacity: 1;">1.2</text><text text-anchor="end" transform="translate(-7,40.50000000000006)" style="font-family: sans-serif; font-size: 10px; fill: #000; opacity: 1;">1.4</text><text text-anchor="end" transform="translate(-7,3)" style="font-family: sans-serif; font-size: 10px; fill: #000; opacity: 1;">1.6</text></g><g class="mark-rule role-axis-domain" style="pointer-events: none;"><line transform="translate(0,300)" x2="0" y2="-300" style="fill: none; stroke: #888; stroke-width: 1; opacity: 1;"></line></g><g class="mark-text role-axis-title" style="pointer-events: none;"><text text-anchor="middle" transform="translate(-34,150) rotate(-90) translate(0,-2)" style="font-family: sans-serif; font-size: 11px; font-weight: bold; fill: #000; opacity: 1;">foodIncomingRate</text></g></g></g></g></g></g></g><g class="mark-group role-scope concat_1_group"><g transform="translate(472,0)"><path class="background" d="M0.5,0.5h400v300h-400Z" style="fill: none; stroke: #ddd;"></path><g><g class="mark-group role-axis"><g transform="translate(0.5,300.5)"><path class="background" d="M0,0h0v0h0Z" style="pointer-events: none; fill: none;"></path><g><g class="mark-rule role-axis-grid" style="pointer-events: none;"><line transform="translate(0,-300)" x2="0" y2="300" style="fill: none; stroke: #ddd; stroke-width: 1; opacity: 1;"></line><line transform="translate(50,-300)" x2="0" y2="300" style="fill: none; stroke: #ddd; stroke-width: 1; opacity: 1;"></line><line transform="translate(100,-300)" x2="0" y2="300" style="fill: none; stroke: #ddd; stroke-width: 1; opacity: 1;"></line><line transform="translate(150,-300)" x2="0" y2="300" style="fill: none; stroke: #ddd; stroke-width: 1; opacity: 1;"></line><line transform="translate(200,-300)" x2="0" y2="300" style="fill: none; stroke: #ddd; stroke-width: 1; opacity: 1;"></line><line transform="translate(250,-300)" x2="0" y2="300" style="fill: none; stroke: #ddd; stroke-width: 1; opacity: 1;"></line><line transform="translate(300,-300)" x2="0" y2="300" style="fill: none; stroke: #ddd; stroke-width: 1; opacity: 1;"></line><line transform="translate(350,-300)" x2="0" y2="300" style="fill: none; stroke: #ddd; stroke-width: 1; opacity: 1;"></line><line transform="translate(400,-300)" x2="0" y2="300" style="fill: none; stroke: #ddd; stroke-width: 1; opacity: 1;"></line></g></g></g></g><g class="mark-group role-axis"><g transform="translate(0.5,0.5)"><path class="background" d="M0,0h0v0h0Z" style="pointer-events: none; fill: none;"></path><g><g class="mark-rule role-axis-grid" style="pointer-events: none;"><line transform="translate(0,300)" x2="400" y2="0" style="fill: none; stroke: #ddd; stroke-width: 1; opacity: 1;"></line><line transform="translate(0,277)" x2="400" y2="0" style="fill: none; stroke: #ddd; stroke-width: 1; opacity: 1;"></line><line transform="translate(0,264)" x2="400" y2="0" style="fill: none; stroke: #ddd; stroke-width: 1; opacity: 1;"></line><line transform="translate(0,255)" x2="400" y2="0" style="fill: none; stroke: #ddd; stroke-width: 1; opacity: 1;"></line><line transform="translate(0,248)" x2="400" y2="0" style="fill: none; stroke: #ddd; stroke-width: 1; opacity: 1;"></line><line transform="translate(0,242)" x2="400" y2="0" style="fill: none; stroke: #ddd; stroke-width: 1; opacity: 1;"></line><line transform="translate(0,237)" x2="400" y2="0" style="fill: none; stroke: #ddd; stroke-width: 1; opacity: 1;"></line><line transform="translate(0,232)" x2="400" y2="0" style="fill: none; stroke: #ddd; stroke-width: 1; opacity: 1;"></line><line transform="translate(0,228)" x2="400" y2="0" style="fill: none; stroke: #ddd; stroke-width: 1; opacity: 1;"></line><line transform="translate(0,225)" x2="400" y2="0" style="fill: none; stroke: #ddd; stroke-width: 1; opacity: 1;"></line><line transform="translate(0,202)" x2="400" y2="0" style="fill: none; stroke: #ddd; stroke-width: 1; opacity: 1;"></line><line transform="translate(0,189)" x2="400" y2="0" style="fill: none; stroke: #ddd; stroke-width: 1; opacity: 1;"></line><line transform="translate(0,180)" x2="400" y2="0" style="fill: none; stroke: #ddd; stroke-width: 1; opacity: 1;"></line><line transform="translate(0,173)" x2="400" y2="0" style="fill: none; stroke: #ddd; stroke-width: 1; opacity: 1;"></line><line transform="translate(0,167)" x2="400" y2="0" style="fill: none; stroke: #ddd; stroke-width: 1; opacity: 1;"></line><line transform="translate(0,162)" x2="400" y2="0" style="fill: none; stroke: #ddd; stroke-width: 1; opacity: 1;"></line><line transform="translate(0,157)" x2="400" y2="0" style="fill: none; stroke: #ddd; stroke-width: 1; opacity: 1;"></line><line transform="translate(0,153)" x2="400" y2="0" style="fill: none; stroke: #ddd; stroke-width: 1; opacity: 1;"></line><line transform="translate(0,150)" x2="400" y2="0" style="fill: none; stroke: #ddd; stroke-width: 1; opacity: 1;"></line><line transform="translate(0,127)" x2="400" y2="0" style="fill: none; stroke: #ddd; stroke-width: 1; opacity: 1;"></line><line transform="translate(0,114)" x2="400" y2="0" style="fill: none; stroke: #ddd; stroke-width: 1; opacity: 1;"></line><line transform="translate(0,105)" x2="400" y2="0" style="fill: none; stroke: #ddd; stroke-width: 1; opacity: 1;"></line><line transform="translate(0,98)" x2="400" y2="0" style="fill: none; stroke: #ddd; stroke-width: 1; opacity: 1;"></line><line transform="translate(0,92)" x2="400" y2="0" style="fill: none; stroke: #ddd; stroke-width: 1; opacity: 1;"></line><line transform="translate(0,87)" x2="400" y2="0" style="fill: none; stroke: #ddd; stroke-width: 1; opacity: 1;"></line><line transform="translate(0,82)" x2="400" y2="0" style="fill: none; stroke: #ddd; stroke-width: 1; opacity: 1;"></line><line transform="translate(0,78)" x2="400" y2="0" style="fill: none; stroke: #ddd; stroke-width: 1; opacity: 1;"></line><line transform="translate(0,75)" x2="400" y2="0" style="fill: none; stroke: #ddd; stroke-width: 1; opacity: 1;"></line><line transform="translate(0,52)" x2="400" y2="0" style="fill: none; stroke: #ddd; stroke-width: 1; opacity: 1;"></line><line transform="translate(0,39)" x2="400" y2="0" style="fill: none; stroke: #ddd; stroke-width: 1; opacity: 1;"></line><line transform="translate(0,30)" x2="400" y2="0" style="fill: none; stroke: #ddd; stroke-width: 1; opacity: 1;"></line><line transform="translate(0,23)" x2="400" y2="0" style="fill: none; stroke: #ddd; stroke-width: 1; opacity: 1;"></line><line transform="translate(0,17)" x2="400" y2="0" style="fill: none; stroke: #ddd; stroke-width: 1; opacity: 1;"></line><line transform="translate(0,12)" x2="400" y2="0" style="fill: none; stroke: #ddd; stroke-width: 1; opacity: 1;"></line><line transform="translate(0,7)" x2="400" y2="0" style="fill: none; stroke: #ddd; stroke-width: 1; opacity: 1;"></line><line transform="translate(0,3)" x2="400" y2="0" style="fill: none; stroke: #ddd; stroke-width: 1; opacity: 1;"></line><line transform="translate(0,0)" x2="400" y2="0" style="fill: none; stroke: #ddd; stroke-width: 1; opacity: 1;"></line></g></g></g></g><g class="mark-symbol role-mark concat_1_marks"><path transform="translate(7.5012376237623695,300)" d="M2.7386127875258306,0A2.7386127875258306,2.7386127875258306,0,1,1,-2.7386127875258306,0A2.7386127875258306,2.7386127875258306,0,1,1,2.7386127875258306,0" style="fill: none; stroke: #f58518; stroke-width: 2;"></path><path transform="translate(29.1625412541254,254.8455006504028)" d="M2.7386127875258306,0A2.7386127875258306,2.7386127875258306,0,1,1,-2.7386127875258306,0A2.7386127875258306,2.7386127875258306,0,1,1,2.7386127875258306,0" style="fill: none; stroke: #e45756; stroke-width: 2;"></path><path transform="translate(93.57260726072606,232.26825097560425)" d="M2.7386127875258306,0A2.7386127875258306,2.7386127875258306,0,1,1,-2.7386127875258306,0A2.7386127875258306,2.7386127875258306,0,1,1,2.7386127875258306,0" style="fill: none; stroke: #72b7b2; stroke-width: 2;"></path><path transform="translate(149.6637788778878,209.69100130080565)" d="M2.7386127875258306,0A2.7386127875258306,2.7386127875258306,0,1,1,-2.7386127875258306,0A2.7386127875258306,2.7386127875258306,0,1,1,2.7386127875258306,0" style="fill: none; stroke: #54a24b; stroke-width: 2;"></path><path transform="translate(226.78589108910887,187.11375162600706)" d="M2.7386127875258306,0A2.7386127875258306,2.7386127875258306,0,1,1,-2.7386127875258306,0A2.7386127875258306,2.7386127875258306,0,1,1,2.7386127875258306,0" style="fill: none; stroke: #eeca3b; stroke-width: 2;"></path><path transform="translate(276.0383663366336,164.5365019512085)" d="M2.7386127875258306,0A2.7386127875258306,2.7386127875258306,0,1,1,-2.7386127875258306,0A2.7386127875258306,2.7386127875258306,0,1,1,2.7386127875258306,0" style="fill: none; stroke: #b279a2; stroke-width: 2;"></path><path transform="translate(313.806105610561,141.9592522764099)" d="M2.7386127875258306,0A2.7386127875258306,2.7386127875258306,0,1,1,-2.7386127875258306,0A2.7386127875258306,2.7386127875258306,0,1,1,2.7386127875258306,0" style="fill: none; stroke: #ff9da6; stroke-width: 2;"></path><path transform="translate(342.5222772277228,119.3820026016113)" d="M2.7386127875258306,0A2.7386127875258306,2.7386127875258306,0,1,1,-2.7386127875258306,0A2.7386127875258306,2.7386127875258306,0,1,1,2.7386127875258306,0" style="fill: none; stroke: #9d755d; stroke-width: 2;"></path><path transform="translate(359.69183168316823,96.80475292681271)" d="M2.7386127875258306,0A2.7386127875258306,2.7386127875258306,0,1,1,-2.7386127875258306,0A2.7386127875258306,2.7386127875258306,0,1,1,2.7386127875258306,0" style="fill: none; stroke: #bab0ac; stroke-width: 2;"></path><path transform="translate(366.71864686468643,74.22750325201412)" d="M2.7386127875258306,0A2.7386127875258306,2.7386127875258306,0,1,1,-2.7386127875258306,0A2.7386127875258306,2.7386127875258306,0,1,1,2.7386127875258306,0" style="fill: none; stroke: #4c78a8; stroke-width: 2;"></path><path transform="translate(370.4150165016502,6.495754227618363)" d="M2.7386127875258306,0A2.7386127875258306,2.7386127875258306,0,1,1,-2.7386127875258306,0A2.7386127875258306,2.7386127875258306,0,1,1,2.7386127875258306,0" style="fill: none; stroke: #f58518; stroke-width: 2;"></path></g><g class="mark-group role-axis"><g transform="translate(0.5,300.5)"><path class="background" d="M0,0h0v0h0Z" style="pointer-events: none; fill: none;"></path><g><g class="mark-rule role-axis-tick" style="pointer-events: none;"><line transform="translate(0,0)" x2="0" y2="5" style="fill: none; stroke: #888; stroke-width: 1; opacity: 1;"></line><line transform="translate(50,0)" x2="0" y2="5" style="fill: none; stroke: #888; stroke-width: 1; opacity: 1;"></line><line transform="translate(100,0)" x2="0" y2="5" style="fill: none; stroke: #888; stroke-width: 1; opacity: 1;"></line><line transform="translate(150,0)" x2="0" y2="5" style="fill: none; stroke: #888; stroke-width: 1; opacity: 1;"></line><line transform="translate(200,0)" x2="0" y2="5" style="fill: none; stroke: #888; stroke-width: 1; opacity: 1;"></line><line transform="translate(250,0)" x2="0" y2="5" style="fill: none; stroke: #888; stroke-width: 1; opacity: 1;"></line><line transform="translate(300,0)" x2="0" y2="5" style="fill: none; stroke: #888; stroke-width: 1; opacity: 1;"></line><line transform="translate(350,0)" x2="0" y2="5" style="fill: none; stroke: #888; stroke-width: 1; opacity: 1;"></line><line transform="translate(400,0)" x2="0" y2="5" style="fill: none; stroke: #888; stroke-width: 1; opacity: 1;"></line></g><g class="mark-text role-axis-label" style="pointer-events: none;"><text text-anchor="start" transform="translate(0,15)" style="font-family: sans-serif; font-size: 10px; fill: #000; opacity: 1;">0.0</text><text text-anchor="middle" transform="translate(50,15)" style="font-family: sans-serif; font-size: 10px; fill: #000; opacity: 1;">0.2</text><text text-anchor="middle" transform="translate(100,15)" style="font-family: sans-serif; font-size: 10px; fill: #000; opacity: 1;">0.4</text><text text-anchor="middle" transform="translate(149.99999999999997,15)" style="font-family: sans-serif; font-size: 10px; fill: #000; opacity: 1;">0.6</text><text text-anchor="middle" transform="translate(200,15)" style="font-family: sans-serif; font-size: 10px; fill: #000; opacity: 1;">0.8</text><text text-anchor="middle" transform="translate(250,15)" style="font-family: sans-serif; font-size: 10px; fill: #000; opacity: 1;">1.0</text><text text-anchor="middle" transform="translate(299.99999999999994,15)" style="font-family: sans-serif; font-size: 10px; fill: #000; opacity: 1;">1.2</text><text text-anchor="middle" transform="translate(349.99999999999994,15)" style="font-family: sans-serif; font-size: 10px; fill: #000; opacity: 1;">1.4</text><text text-anchor="end" transform="translate(400,15)" style="font-family: sans-serif; font-size: 10px; fill: #000; opacity: 1;">1.6</text></g><g class="mark-rule role-axis-domain" style="pointer-events: none;"><line transform="translate(0,0)" x2="400" y2="0" style="fill: none; stroke: #888; stroke-width: 1; opacity: 1;"></line></g><g class="mark-text role-axis-title" style="pointer-events: none;"><text text-anchor="middle" transform="translate(200,31)" style="font-family: sans-serif; font-size: 11px; font-weight: bold; fill: #000; opacity: 1;">Mean of foodIncomingRate</text></g></g></g></g><g class="mark-group role-axis"><g transform="translate(0.5,0.5)"><path class="background" d="M0,0h0v0h0Z" style="pointer-events: none; fill: none;"></path><g><g class="mark-rule role-axis-tick" style="pointer-events: none;"><line transform="translate(0,300)" x2="-5" y2="0" style="fill: none; stroke: #888; stroke-width: 1; opacity: 1;"></line><line transform="translate(0,277)" x2="-5" y2="0" style="fill: none; stroke: #888; stroke-width: 1; opacity: 1;"></line><line transform="translate(0,264)" x2="-5" y2="0" style="fill: none; stroke: #888; stroke-width: 1; opacity: 1;"></line><line transform="translate(0,255)" x2="-5" y2="0" style="fill: none; stroke: #888; stroke-width: 1; opacity: 1;"></line><line transform="translate(0,248)" x2="-5" y2="0" style="fill: none; stroke: #888; stroke-width: 1; opacity: 1;"></line><line transform="translate(0,242)" x2="-5" y2="0" style="fill: none; stroke: #888; stroke-width: 1; opacity: 1;"></line><line transform="translate(0,237)" x2="-5" y2="0" style="fill: none; stroke: #888; stroke-width: 1; opacity: 1;"></line><line transform="translate(0,232)" x2="-5" y2="0" style="fill: none; stroke: #888; stroke-width: 1; opacity: 1;"></line><line transform="translate(0,228)" x2="-5" y2="0" style="fill: none; stroke: #888; stroke-width: 1; opacity: 1;"></line><line transform="translate(0,225)" x2="-5" y2="0" style="fill: none; stroke: #888; stroke-width: 1; opacity: 1;"></line><line transform="translate(0,202)" x2="-5" y2="0" style="fill: none; stroke: #888; stroke-width: 1; opacity: 1;"></line><line transform="translate(0,189)" x2="-5" y2="0" style="fill: none; stroke: #888; stroke-width: 1; opacity: 1;"></line><line transform="translate(0,180)" x2="-5" y2="0" style="fill: none; stroke: #888; stroke-width: 1; opacity: 1;"></line><line transform="translate(0,173)" x2="-5" y2="0" style="fill: none; stroke: #888; stroke-width: 1; opacity: 1;"></line><line transform="translate(0,167)" x2="-5" y2="0" style="fill: none; stroke: #888; stroke-width: 1; opacity: 1;"></line><line transform="translate(0,162)" x2="-5" y2="0" style="fill: none; stroke: #888; stroke-width: 1; opacity: 1;"></line><line transform="translate(0,157)" x2="-5" y2="0" style="fill: none; stroke: #888; stroke-width: 1; opacity: 1;"></line><line transform="translate(0,153)" x2="-5" y2="0" style="fill: none; stroke: #888; stroke-width: 1; opacity: 1;"></line><line transform="translate(0,150)" x2="-5" y2="0" style="fill: none; stroke: #888; stroke-width: 1; opacity: 1;"></line><line transform="translate(0,127)" x2="-5" y2="0" style="fill: none; stroke: #888; stroke-width: 1; opacity: 1;"></line><line transform="translate(0,114)" x2="-5" y2="0" style="fill: none; stroke: #888; stroke-width: 1; opacity: 1;"></line><line transform="translate(0,105)" x2="-5" y2="0" style="fill: none; stroke: #888; stroke-width: 1; opacity: 1;"></line><line transform="translate(0,98)" x2="-5" y2="0" style="fill: none; stroke: #888; stroke-width: 1; opacity: 1;"></line><line transform="translate(0,92)" x2="-5" y2="0" style="fill: none; stroke: #888; stroke-width: 1; opacity: 1;"></line><line transform="translate(0,87)" x2="-5" y2="0" style="fill: none; stroke: #888; stroke-width: 1; opacity: 1;"></line><line transform="translate(0,82)" x2="-5" y2="0" style="fill: none; stroke: #888; stroke-width: 1; opacity: 1;"></line><line transform="translate(0,78)" x2="-5" y2="0" style="fill: none; stroke: #888; stroke-width: 1; opacity: 1;"></line><line transform="translate(0,75)" x2="-5" y2="0" style="fill: none; stroke: #888; stroke-width: 1; opacity: 1;"></line><line transform="translate(0,52)" x2="-5" y2="0" style="fill: none; stroke: #888; stroke-width: 1; opacity: 1;"></line><line transform="translate(0,39)" x2="-5" y2="0" style="fill: none; stroke: #888; stroke-width: 1; opacity: 1;"></line><line transform="translate(0,30)" x2="-5" y2="0" style="fill: none; stroke: #888; stroke-width: 1; opacity: 1;"></line><line transform="translate(0,23)" x2="-5" y2="0" style="fill: none; stroke: #888; stroke-width: 1; opacity: 1;"></line><line transform="translate(0,17)" x2="-5" y2="0" style="fill: none; stroke: #888; stroke-width: 1; opacity: 1;"></line><line transform="translate(0,12)" x2="-5" y2="0" style="fill: none; stroke: #888; stroke-width: 1; opacity: 1;"></line><line transform="translate(0,7)" x2="-5" y2="0" style="fill: none; stroke: #888; stroke-width: 1; opacity: 1;"></line><line transform="translate(0,3)" x2="-5" y2="0" style="fill: none; stroke: #888; stroke-width: 1; opacity: 1;"></line><line transform="translate(0,0)" x2="-5" y2="0" style="fill: none; stroke: #888; stroke-width: 1; opacity: 1;"></line></g><g class="mark-text role-axis-label" style="pointer-events: none;"><text text-anchor="end" transform="translate(-7,303)" style="font-family: sans-serif; font-size: 10px; fill: #000; opacity: 1;">1</text><text text-anchor="end" transform="translate(-7,280.42275032520143)" style="font-family: sans-serif; font-size: 10px; fill: #000; opacity: 1;">2</text><text text-anchor="end" transform="translate(-7,267.21590589602533)" style="font-family: sans-serif; font-size: 10px; fill: #000; opacity: 1;"></text><text text-anchor="end" transform="translate(-7,257.8455006504028)" style="font-family: sans-serif; font-size: 10px; fill: #000; opacity: 1;"></text><text text-anchor="end" transform="translate(-7,250.5772496747986)" style="font-family: sans-serif; font-size: 10px; fill: #000; opacity: 1;"></text><text text-anchor="end" transform="translate(-7,244.63865622122674)" style="font-family: sans-serif; font-size: 10px; fill: #000; opacity: 1;"></text><text text-anchor="end" transform="translate(-7,239.61764699893075)" style="font-family: sans-serif; font-size: 10px; fill: #000; opacity: 1;"></text><text text-anchor="end" transform="translate(-7,235.26825097560425)" style="font-family: sans-serif; font-size: 10px; fill: #000; opacity: 1;"></text><text text-anchor="end" transform="translate(-7,231.43181179205064)" style="font-family: sans-serif; font-size: 10px; fill: #000; opacity: 1;"></text><text text-anchor="end" transform="translate(-7,228)" style="font-family: sans-serif; font-size: 10px; fill: #000; opacity: 1;">10</text><text text-anchor="end" transform="translate(-7,205.42275032520143)" style="font-family: sans-serif; font-size: 10px; fill: #000; opacity: 1;">20</text><text text-anchor="end" transform="translate(-7,192.21590589602533)" style="font-family: sans-serif; font-size: 10px; fill: #000; opacity: 1;"></text><text text-anchor="end" transform="translate(-7,182.8455006504028)" style="font-family: sans-serif; font-size: 10px; fill: #000; opacity: 1;"></text><text text-anchor="end" transform="translate(-7,175.57724967479862)" style="font-family: sans-serif; font-size: 10px; fill: #000; opacity: 1;"></text><text text-anchor="end" transform="translate(-7,169.63865622122674)" style="font-family: sans-serif; font-size: 10px; fill: #000; opacity: 1;"></text><text text-anchor="end" transform="translate(-7,164.61764699893072)" style="font-family: sans-serif; font-size: 10px; fill: #000; opacity: 1;"></text><text text-anchor="end" transform="translate(-7,160.26825097560425)" style="font-family: sans-serif; font-size: 10px; fill: #000; opacity: 1;"></text><text text-anchor="end" transform="translate(-7,156.43181179205064)" style="font-family: sans-serif; font-size: 10px; fill: #000; opacity: 1;"></text><text text-anchor="end" transform="translate(-7,153)" style="font-family: sans-serif; font-size: 10px; fill: #000; opacity: 1;">100</text><text text-anchor="end" transform="translate(-7,130.42275032520143)" style="font-family: sans-serif; font-size: 10px; fill: #000; opacity: 1;">200</text><text text-anchor="end" transform="translate(-7,117.21590589602533)" style="font-family: sans-serif; font-size: 10px; fill: #000; opacity: 1;"></text><text text-anchor="end" transform="translate(-7,107.84550065040284)" style="font-family: sans-serif; font-size: 10px; fill: #000; opacity: 1;"></text><text text-anchor="end" transform="translate(-7,100.57724967479862)" style="font-family: sans-serif; font-size: 10px; fill: #000; opacity: 1;"></text><text text-anchor="end" transform="translate(-7,94.63865622122674)" style="font-family: sans-serif; font-size: 10px; fill: #000; opacity: 1;"></text><text text-anchor="end" transform="translate(-7,89.61764699893075)" style="font-family: sans-serif; font-size: 10px; fill: #000; opacity: 1;"></text><text text-anchor="end" transform="translate(-7,85.26825097560425)" style="font-family: sans-serif; font-size: 10px; fill: #000; opacity: 1;"></text><text text-anchor="end" transform="translate(-7,81.43181179205064)" style="font-family: sans-serif; font-size: 10px; fill: #000; opacity: 1;"></text><text text-anchor="end" transform="translate(-7,78.00000000000003)" style="font-family: sans-serif; font-size: 10px; fill: #000; opacity: 1;">1,000</text><text text-anchor="end" transform="translate(-7,55.422750325201434)" style="font-family: sans-serif; font-size: 10px; fill: #000; opacity: 1;">2,000</text><text text-anchor="end" transform="translate(-7,42.21590589602539)" style="font-family: sans-serif; font-size: 10px; fill: #000; opacity: 1;"></text><text text-anchor="end" transform="translate(-7,32.84550065040287)" style="font-family: sans-serif; font-size: 10px; fill: #000; opacity: 1;"></text><text text-anchor="end" transform="translate(-7,25.577249674798622)" style="font-family: sans-serif; font-size: 10px; fill: #000; opacity: 1;"></text><text text-anchor="end" transform="translate(-7,19.638656221226768)" style="font-family: sans-serif; font-size: 10px; fill: #000; opacity: 1;"></text><text text-anchor="end" transform="translate(-7,14.617646998930752)" style="font-family: sans-serif; font-size: 10px; fill: #000; opacity: 1;"></text><text text-anchor="end" transform="translate(-7,10.268250975604246)" style="font-family: sans-serif; font-size: 10px; fill: #000; opacity: 1;"></text><text text-anchor="end" transform="translate(-7,6.4318117920506666)" style="font-family: sans-serif; font-size: 10px; fill: #000; opacity: 1;"></text><text text-anchor="end" transform="translate(-7,3)" style="font-family: sans-serif; font-size: 10px; fill: #000; opacity: 1;">10,000</text></g><g class="mark-rule role-axis-domain" style="pointer-events: none;"><line transform="translate(0,300)" x2="0" y2="-300" style="fill: none; stroke: #888; stroke-width: 1; opacity: 1;"></line></g><g class="mark-text role-axis-title" style="pointer-events: none;"><text text-anchor="middle" transform="translate(-45,150) rotate(-90) translate(0,-2)" style="font-family: sans-serif; font-size: 11px; font-weight: bold; fill: #000; opacity: 1;">beaconTimescale</text></g></g></g></g></g></g></g><g class="mark-group role-legend"><g transform="translate(892,0)"><path class="background" d="M0,0h108v205h-108Z" style="pointer-events: none; fill: none;"></path><g><g class="mark-group role-legend-entry"><g transform="translate(0,16)"><path class="background" d="M0,0h0v0h0Z" style="pointer-events: none; fill: none;"></path><g><g class="mark-group role-scope"><g transform="translate(0,0)"><path class="background" d="M0,0h41v12.5h-41Z" style="pointer-events: none; fill: none; opacity: 1;"></path><g><g class="mark-symbol role-legend-symbol" style="pointer-events: none;"><path transform="translate(6,6)" d="M5,0A5,5,0,1,1,-5,0A5,5,0,1,1,5,0" style="fill: none; stroke: #4c78a8; stroke-width: 1.5; opacity: 1;"></path></g><g class="mark-text role-legend-label" style="pointer-events: none;"><text text-anchor="start" transform="translate(16,9)" style="font-family: sans-serif; font-size: 10px; fill: #000; opacity: 1;">0</text></g></g></g><g transform="translate(0,16)"><path class="background" d="M0,0h41v12.5h-41Z" style="pointer-events: none; fill: none; opacity: 1;"></path><g><g class="mark-symbol role-legend-symbol" style="pointer-events: none;"><path transform="translate(6,6)" d="M5,0A5,5,0,1,1,-5,0A5,5,0,1,1,5,0" style="fill: none; stroke: #f58518; stroke-width: 1.5; opacity: 1;"></path></g><g class="mark-text role-legend-label" style="pointer-events: none;"><text text-anchor="start" transform="translate(16,9)" style="font-family: sans-serif; font-size: 10px; fill: #000; opacity: 1;">1</text></g></g></g><g transform="translate(0,32)"><path class="background" d="M0,0h41v12.5h-41Z" style="pointer-events: none; fill: none; opacity: 1;"></path><g><g class="mark-symbol role-legend-symbol" style="pointer-events: none;"><path transform="translate(6,6)" d="M5,0A5,5,0,1,1,-5,0A5,5,0,1,1,5,0" style="fill: none; stroke: #e45756; stroke-width: 1.5; opacity: 1;"></path></g><g class="mark-text role-legend-label" style="pointer-events: none;"><text text-anchor="start" transform="translate(16,9)" style="font-family: sans-serif; font-size: 10px; fill: #000; opacity: 1;">4</text></g></g></g><g transform="translate(0,48)"><path class="background" d="M0,0h41v12.5h-41Z" style="pointer-events: none; fill: none; opacity: 1;"></path><g><g class="mark-symbol role-legend-symbol" style="pointer-events: none;"><path transform="translate(6,6)" d="M5,0A5,5,0,1,1,-5,0A5,5,0,1,1,5,0" style="fill: none; stroke: #72b7b2; stroke-width: 1.5; opacity: 1;"></path></g><g class="mark-text role-legend-label" style="pointer-events: none;"><text text-anchor="start" transform="translate(16,9)" style="font-family: sans-serif; font-size: 10px; fill: #000; opacity: 1;">8</text></g></g></g><g transform="translate(0,64)"><path class="background" d="M0,0h41v12.5h-41Z" style="pointer-events: none; fill: none; opacity: 1;"></path><g><g class="mark-symbol role-legend-symbol" style="pointer-events: none;"><path transform="translate(6,6)" d="M5,0A5,5,0,1,1,-5,0A5,5,0,1,1,5,0" style="fill: none; stroke: #54a24b; stroke-width: 1.5; opacity: 1;"></path></g><g class="mark-text role-legend-label" style="pointer-events: none;"><text text-anchor="start" transform="translate(16,9)" style="font-family: sans-serif; font-size: 10px; fill: #000; opacity: 1;">16</text></g></g></g><g transform="translate(0,80)"><path class="background" d="M0,0h41v12.5h-41Z" style="pointer-events: none; fill: none; opacity: 1;"></path><g><g class="mark-symbol role-legend-symbol" style="pointer-events: none;"><path transform="translate(6,6)" d="M5,0A5,5,0,1,1,-5,0A5,5,0,1,1,5,0" style="fill: none; stroke: #eeca3b; stroke-width: 1.5; opacity: 1;"></path></g><g class="mark-text role-legend-label" style="pointer-events: none;"><text text-anchor="start" transform="translate(16,9)" style="font-family: sans-serif; font-size: 10px; fill: #000; opacity: 1;">32</text></g></g></g><g transform="translate(0,96)"><path class="background" d="M0,0h41v12.5h-41Z" style="pointer-events: none; fill: none; opacity: 1;"></path><g><g class="mark-symbol role-legend-symbol" style="pointer-events: none;"><path transform="translate(6,6)" d="M5,0A5,5,0,1,1,-5,0A5,5,0,1,1,5,0" style="fill: none; stroke: #b279a2; stroke-width: 1.5; opacity: 1;"></path></g><g class="mark-text role-legend-label" style="pointer-events: none;"><text text-anchor="start" transform="translate(16,9)" style="font-family: sans-serif; font-size: 10px; fill: #000; opacity: 1;">64</text></g></g></g><g transform="translate(0,112)"><path class="background" d="M0,0h41v12.5h-41Z" style="pointer-events: none; fill: none; opacity: 1;"></path><g><g class="mark-symbol role-legend-symbol" style="pointer-events: none;"><path transform="translate(6,6)" d="M5,0A5,5,0,1,1,-5,0A5,5,0,1,1,5,0" style="fill: none; stroke: #ff9da6; stroke-width: 1.5; opacity: 1;"></path></g><g class="mark-text role-legend-label" style="pointer-events: none;"><text text-anchor="start" transform="translate(16,9)" style="font-family: sans-serif; font-size: 10px; fill: #000; opacity: 1;">128</text></g></g></g><g transform="translate(0,128)"><path class="background" d="M0,0h41v12.5h-41Z" style="pointer-events: none; fill: none; opacity: 1;"></path><g><g class="mark-symbol role-legend-symbol" style="pointer-events: none;"><path transform="translate(6,6)" d="M5,0A5,5,0,1,1,-5,0A5,5,0,1,1,5,0" style="fill: none; stroke: #9d755d; stroke-width: 1.5; opacity: 1;"></path></g><g class="mark-text role-legend-label" style="pointer-events: none;"><text text-anchor="start" transform="translate(16,9)" style="font-family: sans-serif; font-size: 10px; fill: #000; opacity: 1;">256</text></g></g></g><g transform="translate(0,144)"><path class="background" d="M0,0h41v12.5h-41Z" style="pointer-events: none; fill: none; opacity: 1;"></path><g><g class="mark-symbol role-legend-symbol" style="pointer-events: none;"><path transform="translate(6,6)" d="M5,0A5,5,0,1,1,-5,0A5,5,0,1,1,5,0" style="fill: none; stroke: #bab0ac; stroke-width: 1.5; opacity: 1;"></path></g><g class="mark-text role-legend-label" style="pointer-events: none;"><text text-anchor="start" transform="translate(16,9)" style="font-family: sans-serif; font-size: 10px; fill: #000; opacity: 1;">512</text></g></g></g><g transform="translate(0,160)"><path class="background" d="M0,0h41v12.5h-41Z" style="pointer-events: none; fill: none; opacity: 1;"></path><g><g class="mark-symbol role-legend-symbol" style="pointer-events: none;"><path transform="translate(6,6)" d="M5,0A5,5,0,1,1,-5,0A5,5,0,1,1,5,0" style="fill: none; stroke: #4c78a8; stroke-width: 1.5; opacity: 1;"></path></g><g class="mark-text role-legend-label" style="pointer-events: none;"><text text-anchor="start" transform="translate(16,9)" style="font-family: sans-serif; font-size: 10px; fill: #000; opacity: 1;">1024</text></g></g></g><g transform="translate(0,176)"><path class="background" d="M0,0h41v12.5h-41Z" style="pointer-events: none; fill: none; opacity: 1;"></path><g><g class="mark-symbol role-legend-symbol" style="pointer-events: none;"><path transform="translate(6,6)" d="M5,0A5,5,0,1,1,-5,0A5,5,0,1,1,5,0" style="fill: none; stroke: #f58518; stroke-width: 1.5; opacity: 1;"></path></g><g class="mark-text role-legend-label" style="pointer-events: none;"><text text-anchor="start" transform="translate(16,9)" style="font-family: sans-serif; font-size: 10px; fill: #000; opacity: 1;">8192</text></g></g></g></g></g></g></g><g class="mark-text role-legend-title" style="pointer-events: none;"><text text-anchor="start" transform="translate(0,9)" style="font-family: sans-serif; font-size: 11px; font-weight: bold; fill: #000; opacity: 1;">beaconTimescale</text></g></g></g></g></g></g></g></g></svg>